<?xml version="1.0" encoding="UTF-8" standalone="no"?>
<!-- Created with Inkscape (http://www.inkscape.org/) -->

<svg
   width="38.134472mm"
   height="45.5938mm"
   viewBox="0 0 38.134472 45.5938"
   version="1.1"
   id="svg1"
   inkscape:version="1.3.2 (091e20e, 2023-11-25, custom)"
   sodipodi:docname="BridgeLabLogo.svg"
   xmlns:inkscape="http://www.inkscape.org/namespaces/inkscape"
   xmlns:sodipodi="http://sodipodi.sourceforge.net/DTD/sodipodi-0.dtd"
   xmlns="http://www.w3.org/2000/svg"
   xmlns:svg="http://www.w3.org/2000/svg">
  <sodipodi:namedview
     id="namedview1"
     pagecolor="#000000"
     bordercolor="#000000"
     borderopacity="0.25"
     inkscape:showpageshadow="2"
     inkscape:pageopacity="0.0"
     inkscape:pagecheckerboard="false"
     inkscape:deskcolor="#d1d1d1"
     inkscape:document-units="mm"
     inkscape:zoom="2.766336"
     inkscape:cx="66.513974"
     inkscape:cy="94.167881"
     inkscape:window-width="1920"
     inkscape:window-height="974"
     inkscape:window-x="-11"
     inkscape:window-y="-11"
     inkscape:window-maximized="1"
     inkscape:current-layer="layer1" />
  <defs
     id="defs1">
    <clipPath
       clipPathUnits="userSpaceOnUse"
       id="clipPath38">
      <path
         id="path39"
         style="fill:#ff0000;fill-opacity:1;fill-rule:nonzero;stroke:none;stroke-width:0.264583"
         d="m 64.030201,105.25301 v 30.16766 h 30.167667 v -30.16766 z m 8.851138,4.19664 c 0.537364,0.002 0.658493,0.6282 0.03204,1.03146 0.04186,0.23169 -0.109,0.5201 -0.527616,0.69712 -0.08917,0.0377 -0.170958,0.0891 -0.259416,0.12815 -0.222986,0.12612 -0.430726,0.28393 -0.688332,0.33693 -0.123703,0.0282 -0.250148,0.048 -0.372586,0.0816 -0.0297,0.0515 -0.05893,0.10322 -0.08888,0.15452 -0.135605,0.20779 -0.236228,0.43201 -0.387057,0.62941 -0.04665,0.0216 -0.08919,0.0436 -0.130225,0.0651 0.01598,0.0494 0.03692,0.0977 0.04341,0.14934 0.0131,0.10425 -0.302371,0.61929 -0.371038,0.74311 -0.180028,0.33282 -0.367374,0.66181 -0.546219,0.99529 -0.151109,0.30809 -0.32122,0.6073 -0.444418,0.92811 -0.109451,0.35621 -0.252466,0.70035 -0.390673,1.04593 -0.122981,0.36169 -0.249161,0.72251 -0.36122,1.08779 -0.09473,0.35652 -0.212704,0.7061 -0.298172,1.06505 -0.07445,0.26957 -0.144852,0.53952 -0.185,0.81648 -0.03009,0.25103 -0.04069,0.50403 -0.04909,0.75655 -0.007,0.23473 -0.009,0.46953 -0.01035,0.70435 -0.0013,0.28954 -0.0013,0.57914 -0.0016,0.86868 -1.88e-4,0.35664 2.9e-5,0.71306 0,1.0697 -1.3e-5,0.16981 5e-6,0.33972 0,0.50953 0.336121,-0.15255 0.498674,-0.12595 0.628904,0.30024 0.05131,0.22432 0.07626,0.45418 0.148828,0.67334 0.09298,0.26678 0.199078,0.53071 0.332796,0.7798 0.103145,0.16881 0.209298,0.33321 0.317809,0.49765 0.0058,0.009 -0.01598,-0.0142 -0.02376,-0.0212 -0.03789,0.0972 -0.06671,0.19889 -0.09767,0.29972 0.02238,0.0518 0.04555,0.10344 0.06718,0.15555 0.101364,0.26418 0.235296,0.51273 0.352949,0.76946 0.08082,0.16218 0.189955,0.30926 0.316775,0.43822 0.143944,0.15612 0.304689,0.29277 0.46509,0.43098 0.156075,0.14598 0.315907,0.2886 0.487307,0.41651 0.19387,0.14937 0.389337,0.29617 0.575159,0.45579 0.196932,0.17884 0.412475,0.33458 0.618051,0.50281 0.225472,0.17359 0.433054,0.36841 0.65319,0.54828 0.224377,0.15316 0.440674,0.31801 0.644406,0.49765 0.221046,0.19623 0.458668,0.37728 0.709517,0.53382 0.21431,0.12069 0.450374,0.19373 0.677995,0.28473 0.189841,0.0869 0.395261,0.12289 0.596344,0.17209 0.219922,0.0517 0.43688,0.11396 0.652674,0.18086 0.195115,0.0719 0.401233,0.0989 0.604097,0.13798 0.259844,0.056 0.523901,0.0799 0.788583,0.0977 0.373041,0.0219 0.744815,0.0649 1.117761,0.0894 0.379606,0.0223 0.75932,0.0323 1.139465,0.0403 0.296669,0.006 0.593675,0.008 0.890387,0.009 0.239201,-0.006 0.479697,0.0146 0.718301,-0.006 0.257992,-0.042 0.511109,-0.10664 0.766363,-0.16175 0.242586,-0.0467 0.47635,-0.11664 0.695563,-0.231 0.231206,-0.11727 0.454157,-0.2514 0.670761,-0.39377 0.2638,-0.16736 0.530003,-0.33269 0.803569,-0.48369 0.297905,-0.15844 0.601644,-0.30563 0.886767,-0.48679 0.264803,-0.1682 0.549582,-0.30096 0.811837,-0.47284 0.217326,-0.12214 0.404852,-0.28343 0.576191,-0.46302 0.226324,-0.22058 0.432369,-0.46059 0.618566,-0.71572 0.264645,-0.40325 0.4645,-0.84477 0.663009,-1.28313 0.258215,-0.55416 0.517591,-1.10635 0.748276,-1.67276 0.200083,-0.53128 0.398225,-1.06364 0.610815,-1.59009 0.206666,-0.50156 0.43657,-0.9927 0.651123,-1.49086 0.173541,-0.39383 0.34851,-0.78628 0.49506,-1.19114 0.152849,-0.37088 0.322434,-0.73389 0.454236,-1.11311 0.01072,-0.0311 0.0163,-0.0636 0.02585,-0.0951 -0.009,-0.0864 -0.01545,-0.17293 -0.02842,-0.2589 -0.04915,-0.31583 -0.121738,-0.62556 -0.21394,-0.93172 -0.06326,-0.2506 -0.175519,-0.48146 -0.257349,-0.72606 -0.07582,-0.2534 -0.156334,-0.50517 -0.261483,-0.74827 -0.106195,-0.29288 -0.204261,-0.58763 -0.258381,-0.89556 -0.06262,-0.25812 -0.154149,-0.51112 -0.16795,-0.77876 -0.0026,-0.049 -0.0011,-0.0851 5.3e-4,-0.12092 -0.07173,-0.43148 0.409302,-0.75449 0.99787,-0.31678 0.172302,0.12814 0.379765,0.21176 0.514697,0.38757 0.154823,0.17937 0.29138,0.36953 0.41548,0.57155 0.164278,0.25078 0.299895,0.5204 0.380855,0.81028 0.08226,0.31186 0.111725,0.62924 0.09715,0.95188 -7.94e-4,0.26981 -0.0013,0.53949 -0.0062,0.80926 -0.0057,0.24509 -0.0145,0.49049 -0.04186,0.73432 -0.02476,0.1994 -0.06241,0.39654 -0.109038,0.59169 0.01545,0.19052 0.02577,0.38152 0.03307,0.57258 0.0093,0.42769 0.02397,0.85601 0.0078,1.28364 -0.03421,0.4703 -0.165026,0.92493 -0.32711,1.36529 -0.149159,0.38815 -0.333825,0.75949 -0.516766,1.13223 -0.122454,0.29261 -0.263959,0.57664 -0.396875,0.86455 -0.125695,0.25075 -0.222416,0.51259 -0.358634,0.75809 -0.112311,0.2309 -0.2256,0.46152 -0.351915,0.68523 -0.106796,0.20437 -0.23681,0.39492 -0.354502,0.59273 -0.16233,0.25678 -0.316285,0.51778 -0.49041,0.76688 -0.183015,0.26527 -0.368694,0.5279 -0.543118,0.79892 -0.14582,0.24863 -0.288222,0.49899 -0.438217,0.74517 -0.155688,0.25015 -0.341069,0.48046 -0.538469,0.69867 -0.198628,0.23443 -0.42123,0.44473 -0.653706,0.64492 -0.33664,0.27225 -0.728784,0.45664 -1.116211,0.64285 -0.414986,0.21117 -0.857268,0.35921 -1.288809,0.53175 -0.352465,0.13496 -0.701569,0.27922 -1.0511,0.42168 -0.346742,0.11819 -0.674801,0.27832 -1.006139,0.43253 -0.356346,0.16058 -0.730091,0.27746 -1.111043,0.36226 -0.331582,0.0662 -0.661832,0.13385 -0.997355,0.17725 -0.378931,0.0427 -0.760116,0.053 -1.141016,0.062 -0.45375,0.0233 -0.904219,0.002 -1.354958,-0.0496 -0.509391,-0.0427 -1.004636,-0.16444 -1.494999,-0.30283 -0.480427,-0.15641 -0.957061,-0.3257 -1.431435,-0.49971 -0.474686,-0.16417 -0.946354,-0.33471 -1.409734,-0.52865 -0.549974,-0.22112 -1.070634,-0.49984 -1.5844,-0.79323 -0.537985,-0.32657 -1.028633,-0.7232 -1.493964,-1.14515 -0.425294,-0.3673 -0.817531,-0.7663 -1.182875,-1.19269 -0.339598,-0.42811 -0.616427,-0.90036 -0.901237,-1.36529 -0.260784,-0.46128 -0.491189,-0.93839 -0.729671,-1.41129 -0.187296,-0.36255 -0.385535,-0.7195 -0.562755,-1.08727 -0.216543,-0.39465 -0.318852,-0.82874 -0.401011,-1.2671 -0.09748,-0.57181 -0.130858,-1.15157 -0.158647,-1.73013 -0.02326,-0.56049 -0.02922,-1.1217 -0.03462,-1.68259 -0.0038,-0.42635 -0.0053,-0.85264 -0.0062,-1.27899 1.61e-4,-0.39883 0.09514,-0.78639 0.17363,-1.1746 0.06811,-0.38255 0.227795,-0.73822 0.344167,-1.1064 0.140605,-0.35617 0.279419,-0.71421 0.441317,-1.06143 0.142354,-0.29691 0.358074,-0.54689 0.540017,-0.81804 0.123825,-0.21686 0.247235,-0.43392 0.365869,-0.6537 0.139912,-0.2755 0.321871,-0.52394 0.497644,-0.7767 0.190516,-0.23733 0.333571,-0.50724 0.494546,-0.7643 0.0537,-0.0947 0.259736,-0.40466 0.40204,-0.50384 -0.0054,-0.0279 -0.01069,-0.056 -0.01707,-0.0827 -0.02657,-0.11167 0.06248,-0.32835 0.09354,-0.42065 0.117901,-0.29332 0.306702,-0.52748 0.550351,-0.72502 0.02826,-0.0208 0.05744,-0.0391 0.08682,-0.0568 0.04736,-0.0684 0.09719,-0.13478 0.152964,-0.19741 0.177199,-0.19805 0.359529,-0.38651 0.598411,-0.51108 0.231338,-0.1357 0.47616,-0.23318 0.723471,-0.33538 0.201623,-0.0846 0.396817,-0.18377 0.593246,-0.27957 0.174673,-0.0852 0.329949,-0.12146 0.460436,-0.12092 z m -3.073196,2.36265 c -2.65e-4,1.9e-4 -7.94e-4,2.6e-4 -0.0011,5.3e-4 -0.0088,0.0167 -0.03627,0.0665 -0.02687,0.0501 0.0096,-0.0167 0.0186,-0.0338 0.02791,-0.0506 z" />
    </clipPath>
    <clipPath
       clipPathUnits="userSpaceOnUse"
       id="clipPath41">
      <path
         id="path42"
         style="fill:#ff0000;fill-opacity:1;fill-rule:nonzero;stroke:none;stroke-width:0.264583"
         d="m 66.909611,108.13242 v 8.59431 c 0.136581,-0.34627 0.272079,-0.69399 0.429432,-1.03147 0.142354,-0.29691 0.358074,-0.54689 0.540018,-0.81803 0.123825,-0.21686 0.247231,-0.43393 0.365868,-0.65371 0.139912,-0.2755 0.321871,-0.52394 0.497644,-0.7767 0.190516,-0.23733 0.333574,-0.50723 0.494546,-0.76429 0.05367,-0.0946 0.259744,-0.40396 0.40204,-0.50333 -0.0054,-0.0279 -0.01069,-0.056 -0.01707,-0.0827 -0.02657,-0.11167 0.06248,-0.32835 0.09354,-0.42065 0.117901,-0.29332 0.306702,-0.52748 0.550352,-0.72502 0.02826,-0.0208 0.05744,-0.0391 0.08682,-0.0568 0.04736,-0.0684 0.09719,-0.13478 0.152964,-0.19741 0.177199,-0.19805 0.359529,-0.38651 0.598411,-0.51108 0.231338,-0.1357 0.47616,-0.23318 0.723471,-0.33538 0.201623,-0.0846 0.396817,-0.18377 0.593246,-0.27957 0.174673,-0.0852 0.329949,-0.12146 0.460436,-0.12092 0.537363,0.002 0.658492,0.6282 0.03204,1.03146 0.04186,0.23169 -0.109,0.5201 -0.527616,0.69712 -0.08917,0.0377 -0.170958,0.0891 -0.259416,0.12815 -0.222986,0.12612 -0.430726,0.28393 -0.688332,0.33693 -0.123704,0.0282 -0.250148,0.048 -0.372587,0.0816 -0.02969,0.0515 -0.05893,0.10322 -0.08888,0.15452 -0.135604,0.20779 -0.236228,0.43201 -0.387056,0.62941 -0.04387,0.0203 -0.08415,0.0412 -0.122989,0.0615 0.0163,0.05 0.0296,0.10063 0.03617,0.15296 0.0131,0.10425 -0.302371,0.61929 -0.371039,0.74311 -0.180027,0.33282 -0.367373,0.66181 -0.546219,0.99529 -0.151108,0.30809 -0.32122,0.6073 -0.444418,0.92811 -0.10945,0.35621 -0.252465,0.70035 -0.390673,1.04593 -0.122981,0.36169 -0.24916,0.72251 -0.361219,1.08779 -0.09473,0.35652 -0.212704,0.7061 -0.298173,1.06505 -0.07445,0.26957 -0.144851,0.53952 -0.184999,0.81648 -0.03009,0.25103 -0.0407,0.50403 -0.04909,0.75655 -0.007,0.23473 -0.009,0.46953 -0.01035,0.70435 -0.0013,0.28954 -0.0013,0.57914 -0.0016,0.86868 -1.88e-4,0.35664 2.9e-5,0.71306 0,1.0697 -1.3e-5,0.16981 5e-6,0.33972 0,0.50953 0.336121,-0.15255 0.498673,-0.12595 0.628904,0.30024 0.05131,0.22432 0.07626,0.45418 0.148828,0.67334 0.09298,0.26678 0.199078,0.53071 0.332796,0.7798 0.103145,0.16881 0.209298,0.33321 0.317809,0.49765 0.0058,0.009 -0.01598,-0.0142 -0.02376,-0.0212 -0.03789,0.0972 -0.06671,0.19889 -0.09767,0.29972 0.02238,0.0518 0.04555,0.10344 0.06718,0.15555 0.101364,0.26418 0.235296,0.51273 0.352948,0.76946 0.08082,0.16218 0.189955,0.30926 0.316776,0.43822 0.143943,0.15612 0.304688,0.29277 0.465089,0.43098 0.156075,0.14598 0.315908,0.2886 0.487307,0.41651 0.193871,0.14937 0.389337,0.29617 0.57516,0.45579 0.196932,0.17884 0.412474,0.33458 0.61805,0.50281 0.225473,0.17359 0.433054,0.36841 0.65319,0.54828 0.224378,0.15316 0.440675,0.31801 0.644406,0.49765 0.221047,0.19623 0.458669,0.37728 0.709518,0.53382 0.214309,0.12069 0.450373,0.19373 0.677994,0.28473 0.189842,0.0869 0.395261,0.12289 0.596345,0.17209 0.219921,0.0517 0.43688,0.11396 0.652674,0.18086 0.195114,0.0719 0.401233,0.0989 0.604097,0.13798 0.259844,0.056 0.523901,0.0799 0.788582,0.0977 0.373042,0.0219 0.744816,0.0649 1.117762,0.0894 0.379605,0.0223 0.759319,0.0323 1.139465,0.0403 0.296669,0.006 0.593675,0.008 0.890386,0.009 0.239202,-0.006 0.479698,0.0146 0.718302,-0.006 0.257992,-0.042 0.511109,-0.10664 0.766363,-0.16175 0.242586,-0.0467 0.47635,-0.11664 0.695563,-0.231 0.231206,-0.11727 0.454157,-0.2514 0.670761,-0.39377 0.2638,-0.16736 0.530003,-0.33269 0.803569,-0.48369 0.297905,-0.15844 0.601644,-0.30563 0.886766,-0.48679 0.264803,-0.1682 0.549582,-0.30096 0.811837,-0.47284 0.217327,-0.12214 0.404853,-0.28343 0.576191,-0.46302 0.226325,-0.22058 0.432369,-0.46059 0.618567,-0.71572 0.264644,-0.40325 0.4645,-0.84477 0.663009,-1.28313 0.258215,-0.55416 0.517591,-1.10635 0.748276,-1.67276 0.200083,-0.53128 0.398224,-1.06364 0.610814,-1.59009 0.206667,-0.50156 0.436571,-0.9927 0.651124,-1.49086 0.17354,-0.39383 0.348509,-0.78628 0.495059,-1.19114 0.15285,-0.37088 0.322435,-0.73389 0.454237,-1.11311 0.01072,-0.0311 0.0163,-0.0636 0.02585,-0.0951 -0.009,-0.0864 -0.01545,-0.17293 -0.02842,-0.2589 -0.04915,-0.31583 -0.121738,-0.62556 -0.21394,-0.93172 -0.06326,-0.2506 -0.175519,-0.48146 -0.257349,-0.72606 -0.07582,-0.2534 -0.156335,-0.50517 -0.261483,-0.74827 -0.106196,-0.29288 -0.204261,-0.58763 -0.258381,-0.89556 -0.06262,-0.25812 -0.154149,-0.51112 -0.16795,-0.77876 -0.0026,-0.049 -0.0011,-0.0851 5.29e-4,-0.12092 -0.07173,-0.43148 0.409303,-0.75449 0.997871,-0.31678 0.172302,0.12814 0.379764,0.21176 0.514697,0.38757 0.104743,0.12135 0.198535,0.24983 0.288356,0.38138 v -7.61298 z m 2.898532,3.67988 c -2.65e-4,1.9e-4 -7.94e-4,2.6e-4 -0.0011,5.3e-4 -0.0088,0.0167 -0.03627,0.0665 -0.02687,0.0501 0.0096,-0.0167 0.0186,-0.0338 0.02791,-0.0506 z m 21.510831,11.61893 c -0.113016,0.25424 -0.23232,0.50552 -0.355018,0.75551 -0.122454,0.2926 -0.263959,0.57663 -0.396875,0.86454 -0.125695,0.25076 -0.222416,0.5126 -0.358634,0.75809 -0.112311,0.2309 -0.2256,0.46152 -0.351915,0.68523 -0.106796,0.20437 -0.23681,0.39492 -0.354502,0.59273 -0.16233,0.25678 -0.316285,0.51778 -0.49041,0.76688 -0.183015,0.26527 -0.368694,0.5279 -0.543118,0.79892 -0.14582,0.24863 -0.288222,0.49899 -0.438217,0.74517 -0.155688,0.25015 -0.341069,0.48046 -0.538469,0.69867 -0.198628,0.23443 -0.42123,0.44473 -0.653706,0.64492 -0.33664,0.27225 -0.728784,0.45666 -1.116211,0.64286 -0.414986,0.21117 -0.857268,0.35921 -1.288809,0.53175 -0.352465,0.13495 -0.701569,0.27922 -1.0511,0.42168 -0.174101,0.0593 -0.343617,0.12917 -0.51108,0.2036 h 8.448064 z m -24.409363,1.4149 v 7.69565 h 7.997444 c -0.02056,-0.008 -0.04145,-0.0142 -0.06201,-0.0217 -0.474686,-0.16416 -0.946354,-0.3347 -1.409734,-0.52864 -0.549974,-0.22112 -1.070634,-0.49985 -1.5844,-0.79325 -0.537985,-0.32657 -1.028633,-0.72319 -1.493964,-1.14514 -0.425294,-0.3673 -0.817531,-0.7663 -1.182875,-1.1927 -0.339598,-0.4281 -0.616427,-0.90036 -0.901237,-1.36529 -0.260784,-0.46128 -0.491189,-0.93837 -0.729671,-1.41128 -0.187296,-0.36255 -0.385535,-0.71951 -0.562755,-1.08727 -0.02688,-0.049 -0.04726,-0.10024 -0.0708,-0.15037 z" />
    </clipPath>
    <clipPath
       clipPathUnits="userSpaceOnUse"
       id="clipPath38-5">
      <path
         id="path39-0"
         style="fill:#ff0000;fill-opacity:1;fill-rule:nonzero;stroke:none;stroke-width:0.264583"
         d="m 64.030201,105.25301 v 30.16766 h 30.167667 v -30.16766 z m 8.851138,4.19664 c 0.537364,0.002 0.658493,0.6282 0.03204,1.03146 0.04186,0.23169 -0.109,0.5201 -0.527616,0.69712 -0.08917,0.0377 -0.170958,0.0891 -0.259416,0.12815 -0.222986,0.12612 -0.430726,0.28393 -0.688332,0.33693 -0.123703,0.0282 -0.250148,0.048 -0.372586,0.0816 -0.0297,0.0515 -0.05893,0.10322 -0.08888,0.15452 -0.135605,0.20779 -0.236228,0.43201 -0.387057,0.62941 -0.04665,0.0216 -0.08919,0.0436 -0.130225,0.0651 0.01598,0.0494 0.03692,0.0977 0.04341,0.14934 0.0131,0.10425 -0.302371,0.61929 -0.371038,0.74311 -0.180028,0.33282 -0.367374,0.66181 -0.546219,0.99529 -0.151109,0.30809 -0.32122,0.6073 -0.444418,0.92811 -0.109451,0.35621 -0.252466,0.70035 -0.390673,1.04593 -0.122981,0.36169 -0.249161,0.72251 -0.36122,1.08779 -0.09473,0.35652 -0.212704,0.7061 -0.298172,1.06505 -0.07445,0.26957 -0.144852,0.53952 -0.185,0.81648 -0.03009,0.25103 -0.04069,0.50403 -0.04909,0.75655 -0.007,0.23473 -0.009,0.46953 -0.01035,0.70435 -0.0013,0.28954 -0.0013,0.57914 -0.0016,0.86868 -1.88e-4,0.35664 2.9e-5,0.71306 0,1.0697 -1.3e-5,0.16981 5e-6,0.33972 0,0.50953 0.336121,-0.15255 0.498674,-0.12595 0.628904,0.30024 0.05131,0.22432 0.07626,0.45418 0.148828,0.67334 0.09298,0.26678 0.199078,0.53071 0.332796,0.7798 0.103145,0.16881 0.209298,0.33321 0.317809,0.49765 0.0058,0.009 -0.01598,-0.0142 -0.02376,-0.0212 -0.03789,0.0972 -0.06671,0.19889 -0.09767,0.29972 0.02238,0.0518 0.04555,0.10344 0.06718,0.15555 0.101364,0.26418 0.235296,0.51273 0.352949,0.76946 0.08082,0.16218 0.189955,0.30926 0.316775,0.43822 0.143944,0.15612 0.304689,0.29277 0.46509,0.43098 0.156075,0.14598 0.315907,0.2886 0.487307,0.41651 0.19387,0.14937 0.389337,0.29617 0.575159,0.45579 0.196932,0.17884 0.412475,0.33458 0.618051,0.50281 0.225472,0.17359 0.433054,0.36841 0.65319,0.54828 0.224377,0.15316 0.440674,0.31801 0.644406,0.49765 0.221046,0.19623 0.458668,0.37728 0.709517,0.53382 0.21431,0.12069 0.450374,0.19373 0.677995,0.28473 0.189841,0.0869 0.395261,0.12289 0.596344,0.17209 0.219922,0.0517 0.43688,0.11396 0.652674,0.18086 0.195115,0.0719 0.401233,0.0989 0.604097,0.13798 0.259844,0.056 0.523901,0.0799 0.788583,0.0977 0.373041,0.0219 0.744815,0.0649 1.117761,0.0894 0.379606,0.0223 0.75932,0.0323 1.139465,0.0403 0.296669,0.006 0.593675,0.008 0.890387,0.009 0.239201,-0.006 0.479697,0.0146 0.718301,-0.006 0.257992,-0.042 0.511109,-0.10664 0.766363,-0.16175 0.242586,-0.0467 0.47635,-0.11664 0.695563,-0.231 0.231206,-0.11727 0.454157,-0.2514 0.670761,-0.39377 0.2638,-0.16736 0.530003,-0.33269 0.803569,-0.48369 0.297905,-0.15844 0.601644,-0.30563 0.886767,-0.48679 0.264803,-0.1682 0.549582,-0.30096 0.811837,-0.47284 0.217326,-0.12214 0.404852,-0.28343 0.576191,-0.46302 0.226324,-0.22058 0.432369,-0.46059 0.618566,-0.71572 0.264645,-0.40325 0.4645,-0.84477 0.663009,-1.28313 0.258215,-0.55416 0.517591,-1.10635 0.748276,-1.67276 0.200083,-0.53128 0.398225,-1.06364 0.610815,-1.59009 0.206666,-0.50156 0.43657,-0.9927 0.651123,-1.49086 0.173541,-0.39383 0.34851,-0.78628 0.49506,-1.19114 0.152849,-0.37088 0.322434,-0.73389 0.454236,-1.11311 0.01072,-0.0311 0.0163,-0.0636 0.02585,-0.0951 -0.009,-0.0864 -0.01545,-0.17293 -0.02842,-0.2589 -0.04915,-0.31583 -0.121738,-0.62556 -0.21394,-0.93172 -0.06326,-0.2506 -0.175519,-0.48146 -0.257349,-0.72606 -0.07582,-0.2534 -0.156334,-0.50517 -0.261483,-0.74827 -0.106195,-0.29288 -0.204261,-0.58763 -0.258381,-0.89556 -0.06262,-0.25812 -0.154149,-0.51112 -0.16795,-0.77876 -0.0026,-0.049 -0.0011,-0.0851 5.3e-4,-0.12092 -0.07173,-0.43148 0.409302,-0.75449 0.99787,-0.31678 0.172302,0.12814 0.379765,0.21176 0.514697,0.38757 0.154823,0.17937 0.29138,0.36953 0.41548,0.57155 0.164278,0.25078 0.299895,0.5204 0.380855,0.81028 0.08226,0.31186 0.111725,0.62924 0.09715,0.95188 -7.94e-4,0.26981 -0.0013,0.53949 -0.0062,0.80926 -0.0057,0.24509 -0.0145,0.49049 -0.04186,0.73432 -0.02476,0.1994 -0.06241,0.39654 -0.109038,0.59169 0.01545,0.19052 0.02577,0.38152 0.03307,0.57258 0.0093,0.42769 0.02397,0.85601 0.0078,1.28364 -0.03421,0.4703 -0.165026,0.92493 -0.32711,1.36529 -0.149159,0.38815 -0.333825,0.75949 -0.516766,1.13223 -0.122454,0.29261 -0.263959,0.57664 -0.396875,0.86455 -0.125695,0.25075 -0.222416,0.51259 -0.358634,0.75809 -0.112311,0.2309 -0.2256,0.46152 -0.351915,0.68523 -0.106796,0.20437 -0.23681,0.39492 -0.354502,0.59273 -0.16233,0.25678 -0.316285,0.51778 -0.49041,0.76688 -0.183015,0.26527 -0.368694,0.5279 -0.543118,0.79892 -0.14582,0.24863 -0.288222,0.49899 -0.438217,0.74517 -0.155688,0.25015 -0.341069,0.48046 -0.538469,0.69867 -0.198628,0.23443 -0.42123,0.44473 -0.653706,0.64492 -0.33664,0.27225 -0.728784,0.45664 -1.116211,0.64285 -0.414986,0.21117 -0.857268,0.35921 -1.288809,0.53175 -0.352465,0.13496 -0.701569,0.27922 -1.0511,0.42168 -0.346742,0.11819 -0.674801,0.27832 -1.006139,0.43253 -0.356346,0.16058 -0.730091,0.27746 -1.111043,0.36226 -0.331582,0.0662 -0.661832,0.13385 -0.997355,0.17725 -0.378931,0.0427 -0.760116,0.053 -1.141016,0.062 -0.45375,0.0233 -0.904219,0.002 -1.354958,-0.0496 -0.509391,-0.0427 -1.004636,-0.16444 -1.494999,-0.30283 -0.480427,-0.15641 -0.957061,-0.3257 -1.431435,-0.49971 -0.474686,-0.16417 -0.946354,-0.33471 -1.409734,-0.52865 -0.549974,-0.22112 -1.070634,-0.49984 -1.5844,-0.79323 -0.537985,-0.32657 -1.028633,-0.7232 -1.493964,-1.14515 -0.425294,-0.3673 -0.817531,-0.7663 -1.182875,-1.19269 -0.339598,-0.42811 -0.616427,-0.90036 -0.901237,-1.36529 -0.260784,-0.46128 -0.491189,-0.93839 -0.729671,-1.41129 -0.187296,-0.36255 -0.385535,-0.7195 -0.562755,-1.08727 -0.216543,-0.39465 -0.318852,-0.82874 -0.401011,-1.2671 -0.09748,-0.57181 -0.130858,-1.15157 -0.158647,-1.73013 -0.02326,-0.56049 -0.02922,-1.1217 -0.03462,-1.68259 -0.0038,-0.42635 -0.0053,-0.85264 -0.0062,-1.27899 1.61e-4,-0.39883 0.09514,-0.78639 0.17363,-1.1746 0.06811,-0.38255 0.227795,-0.73822 0.344167,-1.1064 0.140605,-0.35617 0.279419,-0.71421 0.441317,-1.06143 0.142354,-0.29691 0.358074,-0.54689 0.540017,-0.81804 0.123825,-0.21686 0.247235,-0.43392 0.365869,-0.6537 0.139912,-0.2755 0.321871,-0.52394 0.497644,-0.7767 0.190516,-0.23733 0.333571,-0.50724 0.494546,-0.7643 0.0537,-0.0947 0.259736,-0.40466 0.40204,-0.50384 -0.0054,-0.0279 -0.01069,-0.056 -0.01707,-0.0827 -0.02657,-0.11167 0.06248,-0.32835 0.09354,-0.42065 0.117901,-0.29332 0.306702,-0.52748 0.550351,-0.72502 0.02826,-0.0208 0.05744,-0.0391 0.08682,-0.0568 0.04736,-0.0684 0.09719,-0.13478 0.152964,-0.19741 0.177199,-0.19805 0.359529,-0.38651 0.598411,-0.51108 0.231338,-0.1357 0.47616,-0.23318 0.723471,-0.33538 0.201623,-0.0846 0.396817,-0.18377 0.593246,-0.27957 0.174673,-0.0852 0.329949,-0.12146 0.460436,-0.12092 z m -3.073196,2.36265 c -2.65e-4,1.9e-4 -7.94e-4,2.6e-4 -0.0011,5.3e-4 -0.0088,0.0167 -0.03627,0.0665 -0.02687,0.0501 0.0096,-0.0167 0.0186,-0.0338 0.02791,-0.0506 z" />
    </clipPath>
    <clipPath
       clipPathUnits="userSpaceOnUse"
       id="clipPath38-55">
      <path
         id="path39-9"
         style="fill:#ff0000;fill-opacity:1;fill-rule:nonzero;stroke:none;stroke-width:0.264583"
         d="m 64.030201,105.25301 v 30.16766 h 30.167667 v -30.16766 z m 8.851138,4.19664 c 0.537364,0.002 0.658493,0.6282 0.03204,1.03146 0.04186,0.23169 -0.109,0.5201 -0.527616,0.69712 -0.08917,0.0377 -0.170958,0.0891 -0.259416,0.12815 -0.222986,0.12612 -0.430726,0.28393 -0.688332,0.33693 -0.123703,0.0282 -0.250148,0.048 -0.372586,0.0816 -0.0297,0.0515 -0.05893,0.10322 -0.08888,0.15452 -0.135605,0.20779 -0.236228,0.43201 -0.387057,0.62941 -0.04665,0.0216 -0.08919,0.0436 -0.130225,0.0651 0.01598,0.0494 0.03692,0.0977 0.04341,0.14934 0.0131,0.10425 -0.302371,0.61929 -0.371038,0.74311 -0.180028,0.33282 -0.367374,0.66181 -0.546219,0.99529 -0.151109,0.30809 -0.32122,0.6073 -0.444418,0.92811 -0.109451,0.35621 -0.252466,0.70035 -0.390673,1.04593 -0.122981,0.36169 -0.249161,0.72251 -0.36122,1.08779 -0.09473,0.35652 -0.212704,0.7061 -0.298172,1.06505 -0.07445,0.26957 -0.144852,0.53952 -0.185,0.81648 -0.03009,0.25103 -0.04069,0.50403 -0.04909,0.75655 -0.007,0.23473 -0.009,0.46953 -0.01035,0.70435 -0.0013,0.28954 -0.0013,0.57914 -0.0016,0.86868 -1.88e-4,0.35664 2.9e-5,0.71306 0,1.0697 -1.3e-5,0.16981 5e-6,0.33972 0,0.50953 0.336121,-0.15255 0.498674,-0.12595 0.628904,0.30024 0.05131,0.22432 0.07626,0.45418 0.148828,0.67334 0.09298,0.26678 0.199078,0.53071 0.332796,0.7798 0.103145,0.16881 0.209298,0.33321 0.317809,0.49765 0.0058,0.009 -0.01598,-0.0142 -0.02376,-0.0212 -0.03789,0.0972 -0.06671,0.19889 -0.09767,0.29972 0.02238,0.0518 0.04555,0.10344 0.06718,0.15555 0.101364,0.26418 0.235296,0.51273 0.352949,0.76946 0.08082,0.16218 0.189955,0.30926 0.316775,0.43822 0.143944,0.15612 0.304689,0.29277 0.46509,0.43098 0.156075,0.14598 0.315907,0.2886 0.487307,0.41651 0.19387,0.14937 0.389337,0.29617 0.575159,0.45579 0.196932,0.17884 0.412475,0.33458 0.618051,0.50281 0.225472,0.17359 0.433054,0.36841 0.65319,0.54828 0.224377,0.15316 0.440674,0.31801 0.644406,0.49765 0.221046,0.19623 0.458668,0.37728 0.709517,0.53382 0.21431,0.12069 0.450374,0.19373 0.677995,0.28473 0.189841,0.0869 0.395261,0.12289 0.596344,0.17209 0.219922,0.0517 0.43688,0.11396 0.652674,0.18086 0.195115,0.0719 0.401233,0.0989 0.604097,0.13798 0.259844,0.056 0.523901,0.0799 0.788583,0.0977 0.373041,0.0219 0.744815,0.0649 1.117761,0.0894 0.379606,0.0223 0.75932,0.0323 1.139465,0.0403 0.296669,0.006 0.593675,0.008 0.890387,0.009 0.239201,-0.006 0.479697,0.0146 0.718301,-0.006 0.257992,-0.042 0.511109,-0.10664 0.766363,-0.16175 0.242586,-0.0467 0.47635,-0.11664 0.695563,-0.231 0.231206,-0.11727 0.454157,-0.2514 0.670761,-0.39377 0.2638,-0.16736 0.530003,-0.33269 0.803569,-0.48369 0.297905,-0.15844 0.601644,-0.30563 0.886767,-0.48679 0.264803,-0.1682 0.549582,-0.30096 0.811837,-0.47284 0.217326,-0.12214 0.404852,-0.28343 0.576191,-0.46302 0.226324,-0.22058 0.432369,-0.46059 0.618566,-0.71572 0.264645,-0.40325 0.4645,-0.84477 0.663009,-1.28313 0.258215,-0.55416 0.517591,-1.10635 0.748276,-1.67276 0.200083,-0.53128 0.398225,-1.06364 0.610815,-1.59009 0.206666,-0.50156 0.43657,-0.9927 0.651123,-1.49086 0.173541,-0.39383 0.34851,-0.78628 0.49506,-1.19114 0.152849,-0.37088 0.322434,-0.73389 0.454236,-1.11311 0.01072,-0.0311 0.0163,-0.0636 0.02585,-0.0951 -0.009,-0.0864 -0.01545,-0.17293 -0.02842,-0.2589 -0.04915,-0.31583 -0.121738,-0.62556 -0.21394,-0.93172 -0.06326,-0.2506 -0.175519,-0.48146 -0.257349,-0.72606 -0.07582,-0.2534 -0.156334,-0.50517 -0.261483,-0.74827 -0.106195,-0.29288 -0.204261,-0.58763 -0.258381,-0.89556 -0.06262,-0.25812 -0.154149,-0.51112 -0.16795,-0.77876 -0.0026,-0.049 -0.0011,-0.0851 5.3e-4,-0.12092 -0.07173,-0.43148 0.409302,-0.75449 0.99787,-0.31678 0.172302,0.12814 0.379765,0.21176 0.514697,0.38757 0.154823,0.17937 0.29138,0.36953 0.41548,0.57155 0.164278,0.25078 0.299895,0.5204 0.380855,0.81028 0.08226,0.31186 0.111725,0.62924 0.09715,0.95188 -7.94e-4,0.26981 -0.0013,0.53949 -0.0062,0.80926 -0.0057,0.24509 -0.0145,0.49049 -0.04186,0.73432 -0.02476,0.1994 -0.06241,0.39654 -0.109038,0.59169 0.01545,0.19052 0.02577,0.38152 0.03307,0.57258 0.0093,0.42769 0.02397,0.85601 0.0078,1.28364 -0.03421,0.4703 -0.165026,0.92493 -0.32711,1.36529 -0.149159,0.38815 -0.333825,0.75949 -0.516766,1.13223 -0.122454,0.29261 -0.263959,0.57664 -0.396875,0.86455 -0.125695,0.25075 -0.222416,0.51259 -0.358634,0.75809 -0.112311,0.2309 -0.2256,0.46152 -0.351915,0.68523 -0.106796,0.20437 -0.23681,0.39492 -0.354502,0.59273 -0.16233,0.25678 -0.316285,0.51778 -0.49041,0.76688 -0.183015,0.26527 -0.368694,0.5279 -0.543118,0.79892 -0.14582,0.24863 -0.288222,0.49899 -0.438217,0.74517 -0.155688,0.25015 -0.341069,0.48046 -0.538469,0.69867 -0.198628,0.23443 -0.42123,0.44473 -0.653706,0.64492 -0.33664,0.27225 -0.728784,0.45664 -1.116211,0.64285 -0.414986,0.21117 -0.857268,0.35921 -1.288809,0.53175 -0.352465,0.13496 -0.701569,0.27922 -1.0511,0.42168 -0.346742,0.11819 -0.674801,0.27832 -1.006139,0.43253 -0.356346,0.16058 -0.730091,0.27746 -1.111043,0.36226 -0.331582,0.0662 -0.661832,0.13385 -0.997355,0.17725 -0.378931,0.0427 -0.760116,0.053 -1.141016,0.062 -0.45375,0.0233 -0.904219,0.002 -1.354958,-0.0496 -0.509391,-0.0427 -1.004636,-0.16444 -1.494999,-0.30283 -0.480427,-0.15641 -0.957061,-0.3257 -1.431435,-0.49971 -0.474686,-0.16417 -0.946354,-0.33471 -1.409734,-0.52865 -0.549974,-0.22112 -1.070634,-0.49984 -1.5844,-0.79323 -0.537985,-0.32657 -1.028633,-0.7232 -1.493964,-1.14515 -0.425294,-0.3673 -0.817531,-0.7663 -1.182875,-1.19269 -0.339598,-0.42811 -0.616427,-0.90036 -0.901237,-1.36529 -0.260784,-0.46128 -0.491189,-0.93839 -0.729671,-1.41129 -0.187296,-0.36255 -0.385535,-0.7195 -0.562755,-1.08727 -0.216543,-0.39465 -0.318852,-0.82874 -0.401011,-1.2671 -0.09748,-0.57181 -0.130858,-1.15157 -0.158647,-1.73013 -0.02326,-0.56049 -0.02922,-1.1217 -0.03462,-1.68259 -0.0038,-0.42635 -0.0053,-0.85264 -0.0062,-1.27899 1.61e-4,-0.39883 0.09514,-0.78639 0.17363,-1.1746 0.06811,-0.38255 0.227795,-0.73822 0.344167,-1.1064 0.140605,-0.35617 0.279419,-0.71421 0.441317,-1.06143 0.142354,-0.29691 0.358074,-0.54689 0.540017,-0.81804 0.123825,-0.21686 0.247235,-0.43392 0.365869,-0.6537 0.139912,-0.2755 0.321871,-0.52394 0.497644,-0.7767 0.190516,-0.23733 0.333571,-0.50724 0.494546,-0.7643 0.0537,-0.0947 0.259736,-0.40466 0.40204,-0.50384 -0.0054,-0.0279 -0.01069,-0.056 -0.01707,-0.0827 -0.02657,-0.11167 0.06248,-0.32835 0.09354,-0.42065 0.117901,-0.29332 0.306702,-0.52748 0.550351,-0.72502 0.02826,-0.0208 0.05744,-0.0391 0.08682,-0.0568 0.04736,-0.0684 0.09719,-0.13478 0.152964,-0.19741 0.177199,-0.19805 0.359529,-0.38651 0.598411,-0.51108 0.231338,-0.1357 0.47616,-0.23318 0.723471,-0.33538 0.201623,-0.0846 0.396817,-0.18377 0.593246,-0.27957 0.174673,-0.0852 0.329949,-0.12146 0.460436,-0.12092 z m -3.073196,2.36265 c -2.65e-4,1.9e-4 -7.94e-4,2.6e-4 -0.0011,5.3e-4 -0.0088,0.0167 -0.03627,0.0665 -0.02687,0.0501 0.0096,-0.0167 0.0186,-0.0338 0.02791,-0.0506 z" />
    </clipPath>
    <clipPath
       clipPathUnits="userSpaceOnUse"
       id="clipPath38-55-3">
      <path
         id="path39-9-6"
         style="fill:#ff0000;fill-opacity:1;fill-rule:nonzero;stroke:none;stroke-width:0.264583"
         d="m 64.030201,105.25301 v 30.16766 h 30.167667 v -30.16766 z m 8.851138,4.19664 c 0.537364,0.002 0.658493,0.6282 0.03204,1.03146 0.04186,0.23169 -0.109,0.5201 -0.527616,0.69712 -0.08917,0.0377 -0.170958,0.0891 -0.259416,0.12815 -0.222986,0.12612 -0.430726,0.28393 -0.688332,0.33693 -0.123703,0.0282 -0.250148,0.048 -0.372586,0.0816 -0.0297,0.0515 -0.05893,0.10322 -0.08888,0.15452 -0.135605,0.20779 -0.236228,0.43201 -0.387057,0.62941 -0.04665,0.0216 -0.08919,0.0436 -0.130225,0.0651 0.01598,0.0494 0.03692,0.0977 0.04341,0.14934 0.0131,0.10425 -0.302371,0.61929 -0.371038,0.74311 -0.180028,0.33282 -0.367374,0.66181 -0.546219,0.99529 -0.151109,0.30809 -0.32122,0.6073 -0.444418,0.92811 -0.109451,0.35621 -0.252466,0.70035 -0.390673,1.04593 -0.122981,0.36169 -0.249161,0.72251 -0.36122,1.08779 -0.09473,0.35652 -0.212704,0.7061 -0.298172,1.06505 -0.07445,0.26957 -0.144852,0.53952 -0.185,0.81648 -0.03009,0.25103 -0.04069,0.50403 -0.04909,0.75655 -0.007,0.23473 -0.009,0.46953 -0.01035,0.70435 -0.0013,0.28954 -0.0013,0.57914 -0.0016,0.86868 -1.88e-4,0.35664 2.9e-5,0.71306 0,1.0697 -1.3e-5,0.16981 5e-6,0.33972 0,0.50953 0.336121,-0.15255 0.498674,-0.12595 0.628904,0.30024 0.05131,0.22432 0.07626,0.45418 0.148828,0.67334 0.09298,0.26678 0.199078,0.53071 0.332796,0.7798 0.103145,0.16881 0.209298,0.33321 0.317809,0.49765 0.0058,0.009 -0.01598,-0.0142 -0.02376,-0.0212 -0.03789,0.0972 -0.06671,0.19889 -0.09767,0.29972 0.02238,0.0518 0.04555,0.10344 0.06718,0.15555 0.101364,0.26418 0.235296,0.51273 0.352949,0.76946 0.08082,0.16218 0.189955,0.30926 0.316775,0.43822 0.143944,0.15612 0.304689,0.29277 0.46509,0.43098 0.156075,0.14598 0.315907,0.2886 0.487307,0.41651 0.19387,0.14937 0.389337,0.29617 0.575159,0.45579 0.196932,0.17884 0.412475,0.33458 0.618051,0.50281 0.225472,0.17359 0.433054,0.36841 0.65319,0.54828 0.224377,0.15316 0.440674,0.31801 0.644406,0.49765 0.221046,0.19623 0.458668,0.37728 0.709517,0.53382 0.21431,0.12069 0.450374,0.19373 0.677995,0.28473 0.189841,0.0869 0.395261,0.12289 0.596344,0.17209 0.219922,0.0517 0.43688,0.11396 0.652674,0.18086 0.195115,0.0719 0.401233,0.0989 0.604097,0.13798 0.259844,0.056 0.523901,0.0799 0.788583,0.0977 0.373041,0.0219 0.744815,0.0649 1.117761,0.0894 0.379606,0.0223 0.75932,0.0323 1.139465,0.0403 0.296669,0.006 0.593675,0.008 0.890387,0.009 0.239201,-0.006 0.479697,0.0146 0.718301,-0.006 0.257992,-0.042 0.511109,-0.10664 0.766363,-0.16175 0.242586,-0.0467 0.47635,-0.11664 0.695563,-0.231 0.231206,-0.11727 0.454157,-0.2514 0.670761,-0.39377 0.2638,-0.16736 0.530003,-0.33269 0.803569,-0.48369 0.297905,-0.15844 0.601644,-0.30563 0.886767,-0.48679 0.264803,-0.1682 0.549582,-0.30096 0.811837,-0.47284 0.217326,-0.12214 0.404852,-0.28343 0.576191,-0.46302 0.226324,-0.22058 0.432369,-0.46059 0.618566,-0.71572 0.264645,-0.40325 0.4645,-0.84477 0.663009,-1.28313 0.258215,-0.55416 0.517591,-1.10635 0.748276,-1.67276 0.200083,-0.53128 0.398225,-1.06364 0.610815,-1.59009 0.206666,-0.50156 0.43657,-0.9927 0.651123,-1.49086 0.173541,-0.39383 0.34851,-0.78628 0.49506,-1.19114 0.152849,-0.37088 0.322434,-0.73389 0.454236,-1.11311 0.01072,-0.0311 0.0163,-0.0636 0.02585,-0.0951 -0.009,-0.0864 -0.01545,-0.17293 -0.02842,-0.2589 -0.04915,-0.31583 -0.121738,-0.62556 -0.21394,-0.93172 -0.06326,-0.2506 -0.175519,-0.48146 -0.257349,-0.72606 -0.07582,-0.2534 -0.156334,-0.50517 -0.261483,-0.74827 -0.106195,-0.29288 -0.204261,-0.58763 -0.258381,-0.89556 -0.06262,-0.25812 -0.154149,-0.51112 -0.16795,-0.77876 -0.0026,-0.049 -0.0011,-0.0851 5.3e-4,-0.12092 -0.07173,-0.43148 0.409302,-0.75449 0.99787,-0.31678 0.172302,0.12814 0.379765,0.21176 0.514697,0.38757 0.154823,0.17937 0.29138,0.36953 0.41548,0.57155 0.164278,0.25078 0.299895,0.5204 0.380855,0.81028 0.08226,0.31186 0.111725,0.62924 0.09715,0.95188 -7.94e-4,0.26981 -0.0013,0.53949 -0.0062,0.80926 -0.0057,0.24509 -0.0145,0.49049 -0.04186,0.73432 -0.02476,0.1994 -0.06241,0.39654 -0.109038,0.59169 0.01545,0.19052 0.02577,0.38152 0.03307,0.57258 0.0093,0.42769 0.02397,0.85601 0.0078,1.28364 -0.03421,0.4703 -0.165026,0.92493 -0.32711,1.36529 -0.149159,0.38815 -0.333825,0.75949 -0.516766,1.13223 -0.122454,0.29261 -0.263959,0.57664 -0.396875,0.86455 -0.125695,0.25075 -0.222416,0.51259 -0.358634,0.75809 -0.112311,0.2309 -0.2256,0.46152 -0.351915,0.68523 -0.106796,0.20437 -0.23681,0.39492 -0.354502,0.59273 -0.16233,0.25678 -0.316285,0.51778 -0.49041,0.76688 -0.183015,0.26527 -0.368694,0.5279 -0.543118,0.79892 -0.14582,0.24863 -0.288222,0.49899 -0.438217,0.74517 -0.155688,0.25015 -0.341069,0.48046 -0.538469,0.69867 -0.198628,0.23443 -0.42123,0.44473 -0.653706,0.64492 -0.33664,0.27225 -0.728784,0.45664 -1.116211,0.64285 -0.414986,0.21117 -0.857268,0.35921 -1.288809,0.53175 -0.352465,0.13496 -0.701569,0.27922 -1.0511,0.42168 -0.346742,0.11819 -0.674801,0.27832 -1.006139,0.43253 -0.356346,0.16058 -0.730091,0.27746 -1.111043,0.36226 -0.331582,0.0662 -0.661832,0.13385 -0.997355,0.17725 -0.378931,0.0427 -0.760116,0.053 -1.141016,0.062 -0.45375,0.0233 -0.904219,0.002 -1.354958,-0.0496 -0.509391,-0.0427 -1.004636,-0.16444 -1.494999,-0.30283 -0.480427,-0.15641 -0.957061,-0.3257 -1.431435,-0.49971 -0.474686,-0.16417 -0.946354,-0.33471 -1.409734,-0.52865 -0.549974,-0.22112 -1.070634,-0.49984 -1.5844,-0.79323 -0.537985,-0.32657 -1.028633,-0.7232 -1.493964,-1.14515 -0.425294,-0.3673 -0.817531,-0.7663 -1.182875,-1.19269 -0.339598,-0.42811 -0.616427,-0.90036 -0.901237,-1.36529 -0.260784,-0.46128 -0.491189,-0.93839 -0.729671,-1.41129 -0.187296,-0.36255 -0.385535,-0.7195 -0.562755,-1.08727 -0.216543,-0.39465 -0.318852,-0.82874 -0.401011,-1.2671 -0.09748,-0.57181 -0.130858,-1.15157 -0.158647,-1.73013 -0.02326,-0.56049 -0.02922,-1.1217 -0.03462,-1.68259 -0.0038,-0.42635 -0.0053,-0.85264 -0.0062,-1.27899 1.61e-4,-0.39883 0.09514,-0.78639 0.17363,-1.1746 0.06811,-0.38255 0.227795,-0.73822 0.344167,-1.1064 0.140605,-0.35617 0.279419,-0.71421 0.441317,-1.06143 0.142354,-0.29691 0.358074,-0.54689 0.540017,-0.81804 0.123825,-0.21686 0.247235,-0.43392 0.365869,-0.6537 0.139912,-0.2755 0.321871,-0.52394 0.497644,-0.7767 0.190516,-0.23733 0.333571,-0.50724 0.494546,-0.7643 0.0537,-0.0947 0.259736,-0.40466 0.40204,-0.50384 -0.0054,-0.0279 -0.01069,-0.056 -0.01707,-0.0827 -0.02657,-0.11167 0.06248,-0.32835 0.09354,-0.42065 0.117901,-0.29332 0.306702,-0.52748 0.550351,-0.72502 0.02826,-0.0208 0.05744,-0.0391 0.08682,-0.0568 0.04736,-0.0684 0.09719,-0.13478 0.152964,-0.19741 0.177199,-0.19805 0.359529,-0.38651 0.598411,-0.51108 0.231338,-0.1357 0.47616,-0.23318 0.723471,-0.33538 0.201623,-0.0846 0.396817,-0.18377 0.593246,-0.27957 0.174673,-0.0852 0.329949,-0.12146 0.460436,-0.12092 z m -3.073196,2.36265 c -2.65e-4,1.9e-4 -7.94e-4,2.6e-4 -0.0011,5.3e-4 -0.0088,0.0167 -0.03627,0.0665 -0.02687,0.0501 0.0096,-0.0167 0.0186,-0.0338 0.02791,-0.0506 z" />
    </clipPath>
  </defs>
  <g
     inkscape:label="Layer 1"
     inkscape:groupmode="layer"
     id="layer1"
     transform="translate(-47.141025,-4.6382999)">
    <text
       xml:space="preserve"
       style="font-size:6.21623px;line-height:1.5;font-family:Sans;-inkscape-font-specification:'Sans, Normal';font-variant-position:super;text-align:end;letter-spacing:0px;word-spacing:14.9855px;text-anchor:end;display:inline;fill:#ffffff;fill-opacity:1;stroke:#ffffff;stroke-width:0;stroke-linecap:round;stroke-dasharray:none;stroke-opacity:1"
       x="81.476913"
       y="25.917603"
       id="text3"><tspan
         sodipodi:role="line"
         id="tspan3"
         style="font-style:normal;font-variant:normal;font-weight:normal;font-stretch:normal;font-size:6.21623px;font-family:Rockwell;-inkscape-font-specification:'Rockwell, Normal';font-variant-ligatures:normal;font-variant-caps:normal;font-variant-numeric:normal;font-variant-east-asian:normal;fill:#ffffff;fill-opacity:1;stroke:#ffffff;stroke-width:0;stroke-dasharray:none;stroke-opacity:1"
         x="81.476913"
         y="25.917603">bridge</tspan></text>
    <text
       xml:space="preserve"
       style="font-style:normal;font-variant:normal;font-weight:bold;font-stretch:normal;font-size:6.21623px;line-height:1.5;font-family:Rockwell;-inkscape-font-specification:'Rockwell, Bold';font-variant-ligatures:normal;font-variant-position:super;font-variant-caps:normal;font-variant-numeric:normal;font-variant-east-asian:normal;text-align:end;letter-spacing:0px;word-spacing:14.9855px;text-anchor:end;display:inline;fill:#ffffff;fill-opacity:1;stroke:#ffffff;stroke-width:0;stroke-linecap:round;stroke-dasharray:none;stroke-opacity:1"
       x="81.347809"
       y="31.70343"
       id="text7"><tspan
         sodipodi:role="line"
         id="tspan7"
         style="fill:#ffffff;fill-opacity:1;stroke:#ffffff;stroke-width:0;stroke-opacity:1"
         x="81.347809"
         y="31.70343">lab</tspan></text>
    <rect
       style="display:inline;fill:none;fill-opacity:1;stroke:#ffffff;stroke-width:0.5;stroke-linecap:round;stroke-linejoin:round;stroke-miterlimit:0;stroke-dasharray:none;stroke-opacity:1"
       id="rect7"
       width="24.701508"
       height="32.592266"
       x="60.32399"
       y="4.8882999"
       ry="1.4657825" />
    <circle
       style="fill:none;fill-opacity:1;stroke:#ffffff;stroke-width:0.5;stroke-linecap:round;stroke-dasharray:none;stroke-opacity:1"
       id="path7"
       cx="79.114151"
       cy="120.33697"
       r="14.838058"
       clip-path="url(#clipPath38)"
       transform="translate(-10.813635,-92.891378)" />
    <path
       id="rect46"
       style="fill:none;fill-opacity:0.538616;stroke:#ffffff;stroke-width:0.5;stroke-linecap:round;stroke-linejoin:round;stroke-miterlimit:0;stroke-dasharray:none;stroke-opacity:1"
       d="m 57.231076,38.413931 c -1.443473,0.740214 -3.220571,2.023518 -4.985254,3.674149 -3.480921,3.255952 -5.550527,6.660591 -4.64031,7.633688 0.910216,0.973094 4.445131,-0.864737 7.926053,-4.120679 1.923718,-1.799388 3.412984,-3.642349 4.209858,-5.09705 a 15.622921,15.622921 0 0 1 -2.510347,-2.090108 z" />
    <path
       id="path43"
       clip-path="url(#clipPath38-5)"
       style="fill:none;fill-opacity:1;stroke:#ffffff;stroke-width:0.354068;stroke-linecap:round;stroke-dasharray:none;stroke-opacity:1"
       d="m 92.329319,113.59988 c -2.532512,-4.96937 -7.637822,-8.09881 -13.215297,-8.10068 -2.799537,0.003 -5.541085,0.79811 -7.907953,2.29322"
       transform="matrix(0.8472946,0,0,0.8472946,1.2675201,-74.515277)"
       sodipodi:nodetypes="ccc" />
  </g>
</svg>
